# xmcd
#
# Track frame offsets: 
#        150
#        13389
#        29304
#        42609
#        59411
#        76722
#        86337
#        99282
#        114313
#        126176
#        143593
#        158585
#        173223
#        186833
#        203128
#        217320
#        229695
#        242367
#
# Disc length: 3400 seconds
#
# Revision: 0
# Processed by: cddbd v1.4PL0 Copyright (c) Steve Scherf et al.
# Submitted via: ExactAudioCopy v0.95a2
#
DISCID=ea0d4612
DTITLE=Lynn Anderson - Lynn Anderson
DYEAR=1900
DGENRE=Country
TTITLE0=Rose Garden
TTITLE1=You Needed Me
TTITLE2=Top Of The World
TTITLE3=Blue Bayou
TTITLE4=Close To You
TTITLE5=Snowbird
TTITLE6=Danny's Song
TTITLE7=We've Only Just Begun
TTITLE8=You Don't Have To Say Yuo Love Me
TTITLE9=Midnight Train To Georgia
TTITLE10=Could I Have This Dance
TTITLE11=Faithless Love
TTITLE12=Talking In Your Sleep
TTITLE13=When I Dream
TTITLE14=Cry
TTITLE15=Stand By Your Man
TTITLE16=It Must Be Love
TTITLE17=I Fall To Pieces
EXTD=
EXTT0=
EXTT1=
EXTT2=
EXTT3=
EXTT4=
EXTT5=
EXTT6=
EXTT7=
EXTT8=
EXTT9=
EXTT10=
EXTT11=
EXTT12=
EXTT13=
EXTT14=
EXTT15=
EXTT16=
EXTT17=
PLAYORDER=
